G04 DipTrace 3.3.1.3*
G04 TopDimension.gbr*
%MOMM*%
G04 #@! TF.FileFunction,Drawing,Top*
G04 #@! TF.Part,Single*
%ADD13C,0.035*%
%ADD36C,0.15686*%
%FSLAX35Y35*%
G04*
G71*
G90*
G75*
G01*
G04 TopDimension*
%LPD*%
X0Y3000000D2*
D13*
X3774027D1*
X0Y0D2*
X3774027D1*
X3724027Y1500000D2*
Y2900000D1*
G36*
Y3000000D2*
X3744027Y2900000D1*
X3704027D1*
X3724027Y3000000D1*
G37*
Y1500000D2*
D13*
Y100000D1*
G36*
Y0D2*
X3704027Y100000D1*
X3744027D1*
X3724027Y0D1*
G37*
X0Y3000000D2*
D13*
Y3939600D1*
X2400000Y3000000D2*
Y3939600D1*
X1200000Y3889600D2*
X100000D1*
G36*
X0D2*
X100000Y3909600D1*
Y3869600D1*
X0Y3889600D1*
G37*
X1200000D2*
D13*
X2300000D1*
G36*
X2400000D2*
X2300000Y3869600D1*
Y3909600D1*
X2400000Y3889600D1*
G37*
Y3000000D2*
D13*
Y-1625123D1*
X999273Y3381547D2*
Y-1625123D1*
X1699637Y-1575123D2*
X2300000D1*
G36*
X2400000D2*
X2300000Y-1595123D1*
Y-1555123D1*
X2400000Y-1575123D1*
G37*
X1699637D2*
D13*
X1099273D1*
G36*
X999273D2*
X1099273Y-1555123D1*
Y-1595123D1*
X999273Y-1575123D1*
G37*
X0Y0D2*
D13*
Y618953D1*
X454077Y6333D2*
Y618953D1*
X0Y568953D2*
X454077D1*
X-150000D2*
X-100000D1*
G36*
X0D2*
X-100000Y548953D1*
Y588953D1*
X0Y568953D1*
G37*
X604077D2*
D13*
X554077D1*
G36*
X454077D2*
X554077Y588953D1*
Y548953D1*
X454077Y568953D1*
G37*
X1210267Y356890D2*
D13*
X-1516553D1*
X1210267D2*
X-1516553D1*
X-1466553D2*
D3*
Y506890D2*
Y456890D1*
G36*
Y356890D2*
X-1486553Y456890D1*
X-1446553D1*
X-1466553Y356890D1*
G37*
Y206890D2*
D13*
Y256890D1*
G36*
Y356890D2*
X-1446553Y256890D1*
X-1486553D1*
X-1466553Y356890D1*
G37*
Y524948D2*
D13*
Y356890D1*
X3857017Y1566131D2*
D36*
Y1512785D1*
X3818159Y1541872D1*
Y1527272D1*
X3813330Y1517614D1*
X3808500Y1512785D1*
X3793900Y1507843D1*
X3784242D1*
X3769642Y1512785D1*
X3759871Y1522443D1*
X3755042Y1537043D1*
Y1551643D1*
X3759871Y1566131D1*
X3764813Y1570960D1*
X3774471Y1575902D1*
X3857017Y1447271D2*
X3852188Y1461871D1*
X3837588Y1471641D1*
X3813330Y1476471D1*
X3798730D1*
X3774471Y1471641D1*
X3759871Y1461871D1*
X3755042Y1447271D1*
Y1437612D1*
X3759871Y1423012D1*
X3774471Y1413354D1*
X3798730Y1408412D1*
X3813330D1*
X3837588Y1413354D1*
X3852188Y1423012D1*
X3857017Y1437612D1*
Y1447271D1*
X3837588Y1413354D2*
X3774471Y1471641D1*
X1126625Y3998332D2*
Y4003161D1*
X1131455Y4012932D1*
X1136284Y4017761D1*
X1146055Y4022591D1*
X1165484D1*
X1175142Y4017761D1*
X1179971Y4012932D1*
X1184913Y4003161D1*
Y3993503D1*
X1179971Y3983732D1*
X1170313Y3969245D1*
X1121684Y3920615D1*
X1189742D1*
X1269744D2*
Y4022591D1*
X1221115Y3954645D1*
X1294002D1*
X1545005Y-1461562D2*
X1554776Y-1456620D1*
X1569376Y-1442133D1*
Y-1544108D1*
X1649378D2*
Y-1442133D1*
X1600749Y-1510079D1*
X1673636D1*
X1709838Y-1534337D2*
X1705009Y-1539279D1*
X1709838Y-1544108D1*
X1714780Y-1539279D1*
X1709838Y-1534337D1*
X1775352Y-1442133D2*
X1760752Y-1446962D1*
X1750982Y-1461562D1*
X1746152Y-1485820D1*
Y-1500420D1*
X1750982Y-1524679D1*
X1760752Y-1539279D1*
X1775352Y-1544108D1*
X1785011D1*
X1799611Y-1539279D1*
X1809269Y-1524679D1*
X1814211Y-1500420D1*
Y-1485820D1*
X1809269Y-1461562D1*
X1799611Y-1446962D1*
X1785011Y-1442133D1*
X1775352D1*
X1809269Y-1461562D2*
X1750982Y-1524679D1*
X1845583Y-1461562D2*
X1855354Y-1456620D1*
X1869954Y-1442133D1*
Y-1544108D1*
X124650Y599969D2*
Y701944D1*
X76020Y633998D1*
X148908D1*
X185110Y609739D2*
X180281Y604798D1*
X185110Y599969D1*
X190051Y604798D1*
X185110Y609739D1*
X279712Y701944D2*
X231195D1*
X226365Y658256D1*
X231195Y663086D1*
X245795Y668027D1*
X260282D1*
X274882Y663086D1*
X284653Y653427D1*
X289482Y638827D1*
Y629169D1*
X284653Y614569D1*
X274882Y604798D1*
X260282Y599969D1*
X245795D1*
X231195Y604798D1*
X226365Y609739D1*
X221424Y619398D1*
X369484Y599969D2*
Y701944D1*
X320855Y633998D1*
X393743D1*
X-1599544Y509619D2*
X-1594715Y495019D1*
X-1580115Y485249D1*
X-1555856Y480419D1*
X-1541256D1*
X-1516998Y485249D1*
X-1502398Y495019D1*
X-1497569Y509619D1*
Y519278D1*
X-1502398Y533878D1*
X-1516998Y543536D1*
X-1541256Y548478D1*
X-1555856D1*
X-1580115Y543536D1*
X-1594715Y533878D1*
X-1599544Y519278D1*
Y509619D1*
X-1580115Y543536D2*
X-1516998Y485249D1*
M02*
