G04 DipTrace 3.3.1.3*
G04 TopSilk.gbr*
%MOMM*%
G04 #@! TF.FileFunction,Legend,Top*
G04 #@! TF.Part,Single*
%ADD10C,0.25*%
%ADD33C,0.19608*%
%FSLAX35Y35*%
G04*
G71*
G90*
G75*
G01*
G04 TopSilk*
%LPD*%
X454077Y260333D2*
D10*
Y6333D1*
X2232077Y260333D2*
X454077D1*
X2232077D2*
Y6333D1*
X454077D1*
X267Y1626890D2*
X3190Y1710587D1*
X11946Y1793876D1*
X26491Y1876352D1*
X46755Y1957612D1*
X72639Y2037262D1*
X104017Y2114911D1*
X140736Y2190184D1*
X182617Y2262712D1*
X229456Y2332142D1*
X281026Y2398136D1*
X337074Y2460373D1*
X397328Y2518549D1*
X461493Y2572382D1*
X529259Y2621607D1*
X600293Y2665987D1*
X674251Y2705304D1*
X750772Y2739368D1*
X829483Y2768011D1*
X910001Y2791095D1*
X991933Y2808508D1*
X1074880Y2820163D1*
X1158439Y2826005D1*
X1242201D1*
X1325760Y2820163D1*
X1408707Y2808508D1*
X1490639Y2791095D1*
X1571157Y2768011D1*
X1649868Y2739368D1*
X1726389Y2705304D1*
X1800347Y2665987D1*
X1871381Y2621607D1*
X1939147Y2572382D1*
X2003312Y2518549D1*
X2063566Y2460373D1*
X2119614Y2398136D1*
X2171184Y2332142D1*
X2218023Y2262712D1*
X2259904Y2190184D1*
X2296623Y2114911D1*
X2328001Y2037262D1*
X2353885Y1957612D1*
X2374149Y1876352D1*
X2388694Y1793876D1*
X2397450Y1710587D1*
X2400373Y1626890D1*
X2397450Y1543193D1*
X2388694Y1459904D1*
X2374149Y1377428D1*
X2353885Y1296168D1*
X2328001Y1216518D1*
X2296623Y1138869D1*
X2259904Y1063596D1*
X2218023Y991068D1*
X2171184Y921638D1*
X2119614Y855644D1*
X2063566Y793407D1*
X2003312Y735231D1*
X1939147Y681398D1*
X1871381Y632173D1*
X1800347Y587793D1*
X1726389Y548476D1*
X1649868Y514412D1*
X1571157Y485769D1*
X1490639Y462685D1*
X1408707Y445272D1*
X1325760Y433617D1*
X1242201Y427775D1*
X1158439D1*
X1074880Y433617D1*
X991933Y445272D1*
X910001Y462685D1*
X829483Y485769D1*
X750772Y514412D1*
X674251Y548476D1*
X600293Y587793D1*
X529259Y632173D1*
X461493Y681398D1*
X397328Y735231D1*
X337074Y793407D1*
X281026Y855644D1*
X229456Y921638D1*
X182617Y991068D1*
X140736Y1063596D1*
X104017Y1138869D1*
X72639Y1216518D1*
X46755Y1296168D1*
X26491Y1377428D1*
X11946Y1459904D1*
X3190Y1543193D1*
X267Y1626890D1*
X1338630Y446320D2*
D33*
Y349174D1*
X1332594Y330924D1*
X1326417Y324887D1*
X1314344Y318710D1*
X1302130D1*
X1290057Y324887D1*
X1284021Y330924D1*
X1277844Y349174D1*
Y361247D1*
X1377846Y421893D2*
X1390060Y428070D1*
X1408310Y446180D1*
Y318710D1*
X1095639Y3182877D2*
Y3091767D1*
X1101676Y3073517D1*
X1113889Y3061444D1*
X1132139Y3055267D1*
X1144212D1*
X1162462Y3061444D1*
X1174676Y3073517D1*
X1180712Y3091767D1*
Y3182877D1*
X1226105Y3152413D2*
Y3158450D1*
X1232141Y3170663D1*
X1238178Y3176700D1*
X1250391Y3182736D1*
X1274678D1*
X1286751Y3176700D1*
X1292787Y3170663D1*
X1298964Y3158450D1*
Y3146377D1*
X1292787Y3134163D1*
X1280714Y3116054D1*
X1219928Y3055267D1*
X1305001D1*
M02*
